<mxfile host="Electron" modified="2024-01-15T08:14:39.497Z" agent="Mozilla/5.0 (Windows NT 10.0; Win64; x64) AppleWebKit/537.36 (KHTML, like Gecko) draw.io/22.1.18 Chrome/120.0.6099.199 Electron/28.1.2 Safari/537.36" etag="0wavPJKX9OAMO8kFihT7" version="22.1.18" type="device">
  <diagram id="X1dPZ0RgSyUIGKopwRJJ" name="Page-1">
    <mxGraphModel dx="1036" dy="614" grid="1" gridSize="10" guides="1" tooltips="1" connect="1" arrows="1" fold="1" page="1" pageScale="1" pageWidth="1169" pageHeight="1654" math="0" shadow="0">
      <root>
        <mxCell id="0" />
        <mxCell id="1" parent="0" />
        <mxCell id="TT6SpfLMc0RY07xU4bbX-3" value="" style="rounded=1;whiteSpace=wrap;html=1;arcSize=5;sketch=1;" parent="1" vertex="1">
          <mxGeometry x="160" y="120" width="360" height="400" as="geometry" />
        </mxCell>
        <mxCell id="TT6SpfLMc0RY07xU4bbX-2" value="" style="aspect=fixed;html=1;points=[];align=center;image;fontSize=12;image=img/lib/azure2/devops/Azure_DevOps.svg;" parent="1" vertex="1">
          <mxGeometry x="120" y="80" width="64" height="64" as="geometry" />
        </mxCell>
        <mxCell id="Ftt4XnZ2NvAOF6slaE_B-1" style="edgeStyle=orthogonalEdgeStyle;rounded=0;orthogonalLoop=1;jettySize=auto;html=1;entryX=0;entryY=0.5;entryDx=0;entryDy=0;curved=1;sketch=1;" parent="1" source="TT6SpfLMc0RY07xU4bbX-5" target="TT6SpfLMc0RY07xU4bbX-12" edge="1">
          <mxGeometry relative="1" as="geometry" />
        </mxCell>
        <mxCell id="Ftt4XnZ2NvAOF6slaE_B-2" style="edgeStyle=orthogonalEdgeStyle;rounded=0;orthogonalLoop=1;jettySize=auto;html=1;entryX=0;entryY=0.5;entryDx=0;entryDy=0;sketch=1;curved=1;" parent="1" source="TT6SpfLMc0RY07xU4bbX-5" target="TT6SpfLMc0RY07xU4bbX-14" edge="1">
          <mxGeometry relative="1" as="geometry" />
        </mxCell>
        <mxCell id="Ftt4XnZ2NvAOF6slaE_B-14" style="edgeStyle=orthogonalEdgeStyle;curved=1;rounded=0;sketch=1;orthogonalLoop=1;jettySize=auto;html=1;fontFamily=Architects Daughter;fontSource=https%3A%2F%2Ffonts.googleapis.com%2Fcss%3Ffamily%3DArchitects%2BDaughter;fontSize=15;" parent="1" source="TT6SpfLMc0RY07xU4bbX-5" target="Ftt4XnZ2NvAOF6slaE_B-12" edge="1">
          <mxGeometry relative="1" as="geometry" />
        </mxCell>
        <mxCell id="Ftt4XnZ2NvAOF6slaE_B-16" value="REPOSITORY" style="edgeLabel;html=1;align=center;verticalAlign=middle;resizable=0;points=[];fontSize=15;fontFamily=Architects Daughter;" parent="Ftt4XnZ2NvAOF6slaE_B-14" vertex="1" connectable="0">
          <mxGeometry x="-0.0224" y="3" relative="1" as="geometry">
            <mxPoint as="offset" />
          </mxGeometry>
        </mxCell>
        <mxCell id="TT6SpfLMc0RY07xU4bbX-5" value="" style="shape=image;verticalLabelPosition=bottom;verticalAlign=top;imageAspect=0;image=data:image/jpeg,/9j/4AAQSkZJRgABAQAAAQABAAD/2wCEAAoHCBISERERERESDw8SGBIZDw8SDxEVGhgZHhkZGRwYGBgcIS4zHB8rJBgYJjgmKzQxNjU1GiQ7Tjs0Py40NTEBDAwMEA8QHxISGjYjJSM3NDQ0NDQ0NDQ2MTQ0MTQ0NDQ0NDQ0NDQ2MTQ0NDQxNDQxNDQ0NDQ0NDQ0NDE2NDE0NP/AABEIAOEA4QMBIgACEQEDEQH/xAAcAAEAAQUBAQAAAAAAAAAAAAAAAQIEBQYHAwj/xAA/EAACAQIBBwYLCAIDAQAAAAAAAQIDEQQFBhIhMUFREyIyYXHRNFJTc4GRkqGxweEUFSMzQmKy8IKTB3Liov/EABoBAQADAQEBAAAAAAAAAAAAAAABAgQFAwb/xAA0EQACAQICBQgLAQEAAAAAAAAAAQIDEQQxEiFBUWEFFDJScYGhwRMVIjNCYpGx0eHw8TT/2gAMAwEAAhEDEQA/AOzAAAAAAAAAAAAAAAAAAAFLdld6ktrYBaZTyjTw1N1aj5q1JLbJ7opcTnuVM5cTXbtN0af6adNtav3Na5fDqIzmyv8Aaqz0X+BTvGkuPGfp+CXWYY7eFwkacdKau34GGrWcnaL1FUptu7bb4t3IIBtPAkEXFwCQRcXAJBFwASCAASZPJGXK2HnG05SpX59KUm01v0b9F9aMWCsoRmrSV0Sm07pnWfvnD+ViDlGk+L9YOf6tj1maecvcdnAByTWAAAAAAAAAAAAAAADT89ss6EPs1N8+a/GaeyHi9svh2mfy1lKOFoyqy1vZCPjSexfN9SZyivXlUlKc3ecm3J8WzoYDD6cvSSyWXF/oz4ipZaK2lAIB2DEVXIuRci4IuVXIuUuRGkSSV3Fzz0ydIA9Li5QpE3BBXcgi4uQCQQASSCAAdsAB8udUAAAAAAAAAAAAFMmkm27JbWyo03PfLOhH7LTfPmr1mt0Hsh2y39XaelGlKrNQX+FZzUI3Zr2c+WHiqzcX+BTvGkuPGfp+CXWYYA+khBQioxyRzJScndggkhsmxUhsociWy+yPgOWm3L8uHS63uj3/AFIk1FXZKV3YjAZMqVud0Kfjtbf+q3mdw+R6MNsNN8Zu/u2F+kkkkrJbEiTDOrKXA0KCR4fY6XkqX+uHcW1fI9Cf6NB8YO3u2e4yAKKUltLWW41LH5LnR53Tp+Ols/7Ld2lipG9NX1PWntTNVyzgORmpR/LnfR/a/F7voaqVXSdnmeM4W1oskyShMrTNFjyJABIAAAO2A5RnXnRWrVp0qNSdLDwlKK5OTTm07OUpLXa97LZY1p4ip48/bl3nFp8nylFOUrG6WJSdkrnfAcC5ep5Sfty7xy9Tyk/bl3l/Vvz+H7K86XV8TvoOBcvU8pP25d45ep5Sfty7x6t+fw/ZPOl1fE76DgXLz8pP25d4+0T8efty7x6t+fw/Y50ur4nfQcAeIn5SftS7yl4iflJ+1LvHq35/D9jnPy+J2/LeUo4WhKrLW9lOPjTexfN9SZyevXlOUpzd5ybcm97Zb0VJRWlKUpb7ybt1ays24bDKhF67t7fI8KtX0jJuLkA1HiTchsMhgFEmbhkqhydGEba2tKXa9fcvQabM31GbEvUketJZlQAMh7gAAAs8qUOUozjvs3HtWtd3pLwBOzuRa+o0KDPRM8YnqjqGQquLkIAE3BAAMY2QAVLAAAAAi4BVchsi5DYAkz3wdK703sXR7eJ4UoOckvW+CMpGKSSWpLYSkGyQAWKgEAAkpZJDAPORu+BrcpShPxoq/bsfvTNJZmc3scot0Zuyk702/G3x9Px7TwxENKN1sPSm7M2QEAwmgkEAAk8cZW5OnOb/AExbXbuXrseprucWPUmqMHdRd6jXHdH0b/RwL04acrFJuyuYSJ6IoiVI6RmKwQSAAAAYsC4uULAC5FwCbkXFyGwA2UNiTLnBUrvTexdHt4kguMNS0I/ufS7j3uUgsVKrkXIuRcAquRci5DkAVXIuTRpynfRWza/kUN2dnqe9AEsholMAGbybl6yUK93bZUSv7S+aM9SqxmtKEozjxi0zRWimLad4txfFNp+tHhPDxlrWo9I1GszfyirVjBaU5RhHjJpGk/bKuzlalvOT7zxk3J3k3J8W2362eawz2sn0vAz2UsvXThQv11GreyvmzBpBIqNMIKCsjzlJyzCKikksQTcm5SLgFVwV/Z5eKwRdE2ZiAUgixJUUi5AsCblLYbPNsWB6UoOckvW+CMpFWSS1JbDyw1LQj+59LuPYskVYFyLi5JAuGyGylyAJlIqw9F1HZaorpS/u8pw9F1HZaorpS4fUy9OCilGKskVbsTYqpwUUoxVkjwxeG09a1TXvLggpxLGG2anqa2olHpiqsZS5q2bZcTzR6IoBYkkkFIsVAAAgAkkAAgF1k7BTxFaFGPSnJJvgv1S9Cu/QTk7J9XEz0KMHOX6nsjFcZS3I6Vm5m9TwcbtqpXmrTqWsktujBbl177diWXFYqNCOftbF5s9qVJzfAyP3TQ8miC/B8/pS3nSstx8/4/B1KFSVGrFwqRdmn7mnvT3Mt7nZ86c3IY6nuhXgnyVW3/zLjF+7b1Pj2Nwk6NSdKrFwqRdpRfxT3p7U9538NiY148Vmv7Z9jm1aTpvgeFw2QQ2aTyKWy6wVK703sXR7eJbQjpSUeJlIpJJLUlsJSJbKgRci5YqSQ2Q2UykAVOROHoObstUV0pcPqMPRc3ZaorpS4fUy9OCilGKskVbsSkTTgopRirJFQFzzLC5jMXi9Lmx6G98foU4zF6fNj0N74/Qt4ovGO0q2VIqRSiS5BUCBcAkEXFwCQRcu8nZPq4mehRg5y1aT2RiuMpbl/dZDaSu9hKV9SLU2nIGZ9Wvo1K+lQo7VG1pyXY+iut6+rebPm/mnSw2jUqWrV1rUmubB/si9/wC56+w2Y5OI5R+Gj9fx+X3bzXTw22f0LXBYKnQgqdKChBblvfFve+tl0Acptt3ZsyAAIANczszahjqeq0MTBPkqttu/Qlxi/c9fFPYwWhOUJKUXZoiUVJWZ884rDTpTlSqRcKkHaUZLWn81vT2NNM8WdkzvzYhjoaUbQxUF+HUa1SW3Ql1cHub7U+PYihOnOVOpFwqRbUoyVmn/AHfvPoMNiY143WprNefZ/dvOq0nTZTRqaM03s3/AydzENblre5L5G/YHMSv9j5SUrYp86GGdrKFug3um9vBbOtes60KVtN2uVUJT6KyNXIbKpxcW4yTjKLalFppprU009jPKUj2PIqlIqw9B1HZaorpS4fUjD0HUdlqiulLh9TMU4KKUYqyRVuxZK4pwUUoxVkioC5QsLmLxmL0+bHob3x+hGMxenzY9De+P0LaKLxjtZVsmKK0EiS5AJABAAAAJuedSooq8nZf3YdOzWzZo0qdLET/GrSjCcHJc2F1pLRjxXjP0WM+IxEKEdKW3JHrTpOo7I17N/M6rX0alfSoUdqja05LqT6K636t50PA4GnQgqdGmqcFuW98W9rfWy7Bwa+JqVn7WW7Z/dp0KdKNPIAAznoAAAAAAAAADVc8c1oY2np07QxcF+HPYpLxJ9XB7uy5tQL06kqclKLs0VlFSVmaBmNmc6TWKxcfxl+TRlZ6H75fu4Ldt27N/ALVq0qs9KX+CEFBWRqOd+ayxKdeglHExWtakqiW58J8Hv2Pc1zOjhpzm4tOGi2p6SacWtTTT39R2rKuUoYeGk+dN9CF9bfyXWc/yhpVZzqStykneVlZPd8El6DqYCtU0NGWWx/2wyYiEb3We0xlOmopRirJFRDFzeZibmLxmL0+bHob3x+hTjcXp82PQ3vxvoW0UXjHaQ2TFHoiESXKkklJIBIIKalRRV5OyAKy2r4tR1R50vci1r4qU9S5sfe+08UiGyyRM5OV3J3Z9B5G8Gw3mqP8ABHz5bUz6DyN4NhvNUf4I5XKfRj2s14XN9xfAA45sAAAAAAAAAANH+1VfK1P9k+8faqvlan+yfebOaPrHj6ZbjeAYvIE5So3k3J6Utcm293EyhllHRk1uPVO6uDzqN6L0Um7PRT1K+67PQFSTnWUKlSVWTrXVS9pJ7uCXVwLY3jLGSY4iN1aNWK5k+P7ZdXw+OlVaM4TcJRamnZxtrvutxOzQrRqR1amtn9sMNSDi9ZbVsPp9FXk9SS39Xaa7j8S3KVNJxUW1NNNO6dmmnss9x1fIORFSSqVEnVeyO1Q/9dZj88M1ViU69BKOJiuctSVVLc+Elue/Y9zU08dTVTQeW/j+CJYeWjdZ7jlsUVpEuDi3GScZRbUotNNNammnsYOqZSQBcAAoqVFFXk7L+7Cwr4qUtS5sfe+0glIuq+LUdUedL3IsJzcneTuylIqSKslagkVkAAl7GfQWRvBsN5ql/BHz49jPoPI3g2G81S/gjl8p9CPa/I1YXOXcXwAOObQAAAAAAAADQQUg7JiNqzd/I/yl8jLGJzd/I/yl8jLHKre8ka4dFAAHmWBbywsJVI1HGLqRTUZW1pP++98S4AuAAYLOfOGlgKWnPn1JXVCinZyfF8IrVd/FtItCEpyUYq7ZDaSuzWv+ScJhoRjiHJUsTJqKglflUrJtpbNFfq7FvVtDRZZVyjVxVaVevPTqT9Cit0ILdFcPTrbbPCliJQ1KzXBn0uGpypU1CUr28OC4HLqtTk5JWMqW2Ixajqjzpe5FpUxM5K10lwR5JHvcokVTk5O8ndkJBIkqSSiQAQSSQACJbGfQmRvBsN5ql/BHz1LYz6FyN4NhvNUv4I5nKnQj3+Rrwmb7i+ABxjaAAAAAAAAAc/AB2TEbVm7+R/lL5GWNfyJj6VOlozmoy0pOzT2auCMj974fyq9Uu45tWE3UbSf0NMJLRWsvwWH3vh/Kr1S7h974fyq9Uu48/Rz6r+hbSjvL8Fh974fyq9Uu4virjJZqxKaeRJr2dObdLH0tGVoV4p8jWtrT8V8Yvh6TYQTCcoSUouzQlFSVmfOmUcBUw9WdGtBwqRfOi9jW6UXvi9zLQ7rnVm3Tx9LRlaFeKfI1rbH4suMXw9JxXKOAqYarOjWi4VIvnRexrdKL3xe5n0OFxUa8dzWa81w+xzqtJ03wLUkpFzUeJUSQRcArBRcXAKwUXFwCW9TPobI3g2G81S/gj54k9TPofI3g2G81S/gjl8qdCPf5GrCZvuL4AHGNwAAAAAAAABz8AHZMIAAAAAAZv0Ni7EaAzf47F2Ix4z4e/wAj3o7SoAGI9wa9nVm3Tx9LRlaFeKfI1rbH4suMXw9JsILQnKElKLs0RKKkrM+c8o4Cph6sqNaLhUg+dF71ulF74vcy1O6515t08fSs7QrxT5GtbY/Flxi+HpOJ5RwFXDVZ0a0XCpB86L2NbpRe+L3M+hwuKjXjuazXmuH2ObWoum+BbAA1niAAAAAAHsPojI3g2G81S/gjhWb+RKuNrRo0ovRuuVq25sI75N8bXst7O/0qajGMYq0YpKK6krI5HKk17MNut/Y24RPXLsPQAHINgAAAAAAAABz8AHZMIAAAAABDN/jsXYgDHjPh7/I96O0qABiPcAAAHKf+XvCML5uf80AbeT/+hd/2Z4Yn3b7jn4APoTmgAAAIAA7rmR4FT7ZfI2EA+Uq+8l2s7EckAAUJAAAAAAAAAP/Z;horizontal=1;" parent="1" vertex="1">
          <mxGeometry x="197.5" y="280" width="80" height="80" as="geometry" />
        </mxCell>
        <mxCell id="TT6SpfLMc0RY07xU4bbX-20" style="edgeStyle=orthogonalEdgeStyle;curved=1;rounded=0;sketch=1;orthogonalLoop=1;jettySize=auto;html=1;fontFamily=Architects Daughter;fontSource=https%3A%2F%2Ffonts.googleapis.com%2Fcss%3Ffamily%3DArchitects%2BDaughter;fontSize=15;" parent="1" source="TT6SpfLMc0RY07xU4bbX-7" target="TT6SpfLMc0RY07xU4bbX-18" edge="1">
          <mxGeometry relative="1" as="geometry" />
        </mxCell>
        <mxCell id="TT6SpfLMc0RY07xU4bbX-7" value="service connection&amp;nbsp;&lt;br style=&quot;font-size: 15px&quot;&gt;&lt;i&gt;github&lt;/i&gt;" style="shape=process;whiteSpace=wrap;html=1;backgroundOutline=1;sketch=1;fillColor=#f8cecc;strokeColor=#b85450;fontFamily=Architects Daughter;fontSource=https%3A%2F%2Ffonts.googleapis.com%2Fcss%3Ffamily%3DArchitects%2BDaughter;fontSize=15;" parent="1" vertex="1">
          <mxGeometry x="602" y="382.5" width="160" height="60" as="geometry" />
        </mxCell>
        <mxCell id="Ftt4XnZ2NvAOF6slaE_B-7" style="edgeStyle=orthogonalEdgeStyle;curved=1;rounded=0;sketch=1;orthogonalLoop=1;jettySize=auto;html=1;fontFamily=Architects Daughter;fontSource=https%3A%2F%2Ffonts.googleapis.com%2Fcss%3Ffamily%3DArchitects%2BDaughter;fontSize=15;" parent="1" source="TT6SpfLMc0RY07xU4bbX-8" target="Ftt4XnZ2NvAOF6slaE_B-4" edge="1">
          <mxGeometry relative="1" as="geometry" />
        </mxCell>
        <mxCell id="TT6SpfLMc0RY07xU4bbX-8" value="service connection&amp;nbsp;&lt;br style=&quot;font-size: 15px&quot;&gt;&lt;i&gt;tls cert&lt;/i&gt;" style="shape=process;whiteSpace=wrap;html=1;backgroundOutline=1;sketch=1;fillColor=#f8cecc;strokeColor=#b85450;fontFamily=Architects Daughter;fontSource=https%3A%2F%2Ffonts.googleapis.com%2Fcss%3Ffamily%3DArchitects%2BDaughter;fontSize=15;" parent="1" vertex="1">
          <mxGeometry x="602" y="230" width="160" height="60" as="geometry" />
        </mxCell>
        <mxCell id="TT6SpfLMc0RY07xU4bbX-11" value="pipeline" style="text;html=1;strokeColor=none;fillColor=none;align=center;verticalAlign=middle;whiteSpace=wrap;rounded=0;sketch=1;fontFamily=Architects Daughter;fontSource=https%3A%2F%2Ffonts.googleapis.com%2Fcss%3Ffamily%3DArchitects%2BDaughter;fontSize=15;" parent="1" vertex="1">
          <mxGeometry x="330" y="130" width="60" height="30" as="geometry" />
        </mxCell>
        <mxCell id="Ftt4XnZ2NvAOF6slaE_B-8" style="edgeStyle=orthogonalEdgeStyle;curved=1;rounded=0;sketch=1;orthogonalLoop=1;jettySize=auto;html=1;entryX=0;entryY=0.5;entryDx=0;entryDy=0;fontFamily=Architects Daughter;fontSource=https%3A%2F%2Ffonts.googleapis.com%2Fcss%3Ffamily%3DArchitects%2BDaughter;fontSize=15;" parent="1" source="TT6SpfLMc0RY07xU4bbX-12" target="TT6SpfLMc0RY07xU4bbX-8" edge="1">
          <mxGeometry relative="1" as="geometry" />
        </mxCell>
        <mxCell id="TT6SpfLMc0RY07xU4bbX-12" value="resource auth" style="rounded=1;whiteSpace=wrap;html=1;sketch=1;fontFamily=Architects Daughter;fontSource=https%3A%2F%2Ffonts.googleapis.com%2Fcss%3Ffamily%3DArchitects%2BDaughter;fontSize=15;fillColor=#d5e8d4;strokeColor=#82b366;" parent="1" vertex="1">
          <mxGeometry x="360" y="230" width="120" height="60" as="geometry" />
        </mxCell>
        <mxCell id="Ftt4XnZ2NvAOF6slaE_B-9" style="edgeStyle=orthogonalEdgeStyle;curved=1;rounded=0;sketch=1;orthogonalLoop=1;jettySize=auto;html=1;entryX=0;entryY=0.5;entryDx=0;entryDy=0;fontFamily=Architects Daughter;fontSource=https%3A%2F%2Ffonts.googleapis.com%2Fcss%3Ffamily%3DArchitects%2BDaughter;fontSize=15;" parent="1" source="TT6SpfLMc0RY07xU4bbX-14" target="TT6SpfLMc0RY07xU4bbX-7" edge="1">
          <mxGeometry relative="1" as="geometry" />
        </mxCell>
        <mxCell id="TT6SpfLMc0RY07xU4bbX-14" value="resource auth" style="rounded=1;whiteSpace=wrap;html=1;sketch=1;fontFamily=Architects Daughter;fontSource=https%3A%2F%2Ffonts.googleapis.com%2Fcss%3Ffamily%3DArchitects%2BDaughter;fontSize=15;fillColor=#d5e8d4;strokeColor=#82b366;" parent="1" vertex="1">
          <mxGeometry x="360" y="382.5" width="120" height="60" as="geometry" />
        </mxCell>
        <mxCell id="TT6SpfLMc0RY07xU4bbX-18" value="Github" style="dashed=0;outlineConnect=0;html=1;align=center;labelPosition=center;verticalLabelPosition=bottom;verticalAlign=top;shape=mxgraph.weblogos.github;sketch=0;fontFamily=Architects Daughter;fontSource=https%3A%2F%2Ffonts.googleapis.com%2Fcss%3Ffamily%3DArchitects%2BDaughter;fontSize=15;" parent="1" vertex="1">
          <mxGeometry x="842" y="375" width="75" height="75" as="geometry" />
        </mxCell>
        <mxCell id="Ftt4XnZ2NvAOF6slaE_B-4" value="" style="shape=image;verticalLabelPosition=bottom;verticalAlign=top;imageAspect=0;image=https://upload.wikimedia.org/wikipedia/commons/thumb/f/fa/Microsoft_Azure.svg/1200px-Microsoft_Azure.svg.png" parent="1" vertex="1">
          <mxGeometry x="842" y="220" width="80" height="80" as="geometry" />
        </mxCell>
        <mxCell id="Ftt4XnZ2NvAOF6slaE_B-6" value="Resource already created" style="text;html=1;align=center;verticalAlign=middle;whiteSpace=wrap;rounded=0;fontFamily=Architects Daughter;fontSource=https%3A%2F%2Ffonts.googleapis.com%2Fcss%3Ffamily%3DArchitects%2BDaughter;fontSize=15;sketch=1;fillColor=#f8cecc;strokeColor=#b85450;" parent="1" vertex="1">
          <mxGeometry x="562" y="160" width="240" height="30" as="geometry" />
        </mxCell>
        <mxCell id="Ftt4XnZ2NvAOF6slaE_B-10" value="repo is usually:&lt;br&gt;&lt;a href=&quot;https://github.com/pagopa/le-azure-acme-tiny&quot;&gt;pagopa/le-azure-acme-tiny (github.com)&lt;/a&gt;" style="text;html=1;strokeColor=none;fillColor=none;align=center;verticalAlign=middle;whiteSpace=wrap;rounded=0;sketch=1;fontFamily=Architects Daughter;fontSource=https%3A%2F%2Ffonts.googleapis.com%2Fcss%3Ffamily%3DArchitects%2BDaughter;fontSize=15;" parent="1" vertex="1">
          <mxGeometry x="285" y="590" width="150" height="30" as="geometry" />
        </mxCell>
        <mxCell id="Ftt4XnZ2NvAOF6slaE_B-12" value="Github" style="dashed=0;outlineConnect=0;html=1;align=center;labelPosition=center;verticalLabelPosition=bottom;verticalAlign=top;shape=mxgraph.weblogos.github;sketch=0;fontFamily=Architects Daughter;fontSource=https%3A%2F%2Ffonts.googleapis.com%2Fcss%3Ffamily%3DArchitects%2BDaughter;fontSize=15;" parent="1" vertex="1">
          <mxGeometry x="200.5" y="560" width="75" height="75" as="geometry" />
        </mxCell>
        <mxCell id="Ftt4XnZ2NvAOF6slaE_B-17" value="" style="rounded=1;whiteSpace=wrap;html=1;arcSize=4;sketch=1;" parent="1" vertex="1">
          <mxGeometry x="160" y="720" width="360" height="280" as="geometry" />
        </mxCell>
        <mxCell id="Ftt4XnZ2NvAOF6slaE_B-18" value="" style="shape=image;verticalLabelPosition=bottom;verticalAlign=top;imageAspect=0;image=https://upload.wikimedia.org/wikipedia/commons/thumb/f/fa/Microsoft_Azure.svg/1200px-Microsoft_Azure.svg.png" parent="1" vertex="1">
          <mxGeometry x="170" y="730" width="80" height="80" as="geometry" />
        </mxCell>
        <mxCell id="Ftt4XnZ2NvAOF6slaE_B-20" style="edgeStyle=orthogonalEdgeStyle;curved=1;rounded=0;sketch=1;orthogonalLoop=1;jettySize=auto;html=1;fontFamily=Architects Daughter;fontSource=https%3A%2F%2Ffonts.googleapis.com%2Fcss%3Ffamily%3DArchitects%2BDaughter;fontSize=15;entryX=-0.062;entryY=0.516;entryDx=0;entryDy=0;entryPerimeter=0;" parent="1" source="Ftt4XnZ2NvAOF6slaE_B-19" target="Ftt4XnZ2NvAOF6slaE_B-21" edge="1">
          <mxGeometry relative="1" as="geometry">
            <mxPoint x="680" y="872" as="targetPoint" />
          </mxGeometry>
        </mxCell>
        <mxCell id="Ftt4XnZ2NvAOF6slaE_B-19" value="azdo-sp-acme-challenge-***" style="aspect=fixed;html=1;points=[];align=center;image;fontSize=15;image=img/lib/azure2/identity/App_Registrations.svg;sketch=1;fontFamily=Architects Daughter;fontSource=https%3A%2F%2Ffonts.googleapis.com%2Fcss%3Ffamily%3DArchitects%2BDaughter;" parent="1" vertex="1">
          <mxGeometry x="308.5" y="840" width="63" height="64" as="geometry" />
        </mxCell>
        <mxCell id="Ftt4XnZ2NvAOF6slaE_B-21" value="public dns" style="aspect=fixed;html=1;points=[];align=center;image;fontSize=15;image=img/lib/azure2/networking/DNS_Zones.svg;sketch=1;fontFamily=Architects Daughter;fontSource=https%3A%2F%2Ffonts.googleapis.com%2Fcss%3Ffamily%3DArchitects%2BDaughter;" parent="1" vertex="1">
          <mxGeometry x="738" y="840" width="64" height="64" as="geometry" />
        </mxCell>
        <mxCell id="Ftt4XnZ2NvAOF6slaE_B-23" value="Role: Dns Zone Contributor&lt;br&gt;Only on &lt;i&gt;TXT records&lt;/i&gt;" style="text;html=1;strokeColor=none;fillColor=none;align=center;verticalAlign=middle;whiteSpace=wrap;rounded=0;sketch=1;fontFamily=Architects Daughter;fontSource=https%3A%2F%2Ffonts.googleapis.com%2Fcss%3Ffamily%3DArchitects%2BDaughter;fontSize=15;" parent="1" vertex="1">
          <mxGeometry x="530" y="890" width="170" height="30" as="geometry" />
        </mxCell>
        <mxCell id="Ftt4XnZ2NvAOF6slaE_B-28" value="📌 allows &lt;br&gt;&lt;i&gt;le-azure-acme-tiny/acme_tiny.py&lt;br&gt;&lt;/i&gt;&amp;nbsp;to run and execute let&#39;s encrypt verification on DNS TXT record" style="text;html=1;strokeColor=none;fillColor=none;align=center;verticalAlign=middle;whiteSpace=wrap;rounded=0;sketch=1;fontFamily=Architects Daughter;fontSource=https%3A%2F%2Ffonts.googleapis.com%2Fcss%3Ffamily%3DArchitects%2BDaughter;fontSize=15;" parent="1" vertex="1">
          <mxGeometry x="230" y="750" width="310" height="30" as="geometry" />
        </mxCell>
      </root>
    </mxGraphModel>
  </diagram>
</mxfile>
